<svg xmlns="http://www.w3.org/2000/svg" width="22" height="16" viewBox="0 0 22 16" fill="none">
  <path fill-rule="evenodd" clip-rule="evenodd" d="M-0.000976562 0L21.3324 9.77183e-05V1.23165H10.6657V2.46318H21.3324V3.69474H10.6657V4.9263H21.3324V6.15786H10.6657V7.38939H21.3324V8.62094L-0.000976562 8.62084V0ZM1.40253 1.06725L1.12183 1.33408L0.841129 1.06725L1.12183 0.80041L1.40253 1.06725ZM3.08674 1.06725L2.80604 1.33408L2.52534 1.06725L2.80604 0.80041L3.08674 1.06725ZM4.49025 1.33408L4.77095 1.06725L4.49025 0.80041L4.20955 1.06725L4.49025 1.33408ZM6.45516 1.06725L6.17446 1.33408L5.89376 1.06725L6.17446 0.80041L6.45516 1.06725ZM7.85867 1.33408L8.13937 1.06725L7.85867 0.80041L7.57797 1.06725L7.85867 1.33408ZM9.82359 1.06725L9.54288 1.33408L9.26218 1.06725L9.54288 0.80041L9.82359 1.06725ZM1.96394 2.40143L2.24464 2.13459L1.96394 1.86775L1.68323 2.13459L1.96394 2.40143ZM3.92885 2.13459L3.64815 2.40143L3.36744 2.13459L3.64815 1.86775L3.92885 2.13459ZM5.33236 2.40143L5.61306 2.13459L5.33236 1.86775L5.05166 2.13459L5.33236 2.40143ZM7.29727 2.13459L7.01657 2.40143L6.73587 2.13459L7.01657 1.86775L7.29727 2.13459ZM8.70078 2.40143L8.98148 2.13459L8.70078 1.86775L8.42008 2.13459L8.70078 2.40143ZM1.40253 3.20193L1.12183 3.46877L0.841129 3.20193L1.12183 2.9351L1.40253 3.20193ZM2.80604 3.46877L3.08674 3.20193L2.80604 2.9351L2.52534 3.20193L2.80604 3.46877ZM4.77095 3.20193L4.49025 3.46877L4.20955 3.20193L4.49025 2.9351L4.77095 3.20193ZM6.17446 3.46877L6.45516 3.20193L6.17446 2.9351L5.89376 3.20193L6.17446 3.46877ZM8.13937 3.20193L7.85867 3.46877L7.57797 3.20193L7.85867 2.9351L8.13937 3.20193ZM9.54288 3.46877L9.82359 3.20193L9.54288 2.9351L9.26218 3.20193L9.54288 3.46877ZM2.24464 4.26928L1.96394 4.53612L1.68323 4.26928L1.96394 4.00244L2.24464 4.26928ZM3.64815 4.53612L3.92885 4.26928L3.64815 4.00244L3.36744 4.26928L3.64815 4.53612ZM5.61306 4.26928L5.33236 4.53612L5.05166 4.26928L5.33236 4.00244L5.61306 4.26928ZM7.01657 4.53612L7.29727 4.26928L7.01657 4.00244L6.73587 4.26928L7.01657 4.53612ZM8.98148 4.26928L8.70078 4.53612L8.42008 4.26928L8.70078 4.00244L8.98148 4.26928ZM1.12183 5.60346L1.40253 5.33662L1.12183 5.06979L0.841129 5.33662L1.12183 5.60346ZM3.08674 5.33662L2.80604 5.60346L2.52534 5.33662L2.80604 5.06979L3.08674 5.33662ZM4.49025 5.60346L4.77095 5.33662L4.49025 5.06979L4.20955 5.33662L4.49025 5.60346ZM6.45516 5.33662L6.17446 5.60346L5.89376 5.33662L6.17446 5.06979L6.45516 5.33662ZM7.85867 5.60346L8.13937 5.33662L7.85867 5.06979L7.57797 5.33662L7.85867 5.60346ZM9.82359 5.33662L9.54288 5.60346L9.26218 5.33662L9.54288 5.06979L9.82359 5.33662ZM1.96394 6.6708L2.24464 6.40397L1.96394 6.13713L1.68323 6.40397L1.96394 6.6708ZM3.92885 6.40397L3.64815 6.6708L3.36744 6.40397L3.64815 6.13713L3.92885 6.40397ZM5.33236 6.6708L5.61306 6.40397L5.33236 6.13713L5.05166 6.40397L5.33236 6.6708ZM7.29727 6.40397L7.01657 6.6708L6.73587 6.40397L7.01657 6.13713L7.29727 6.40397ZM8.70078 6.6708L8.98148 6.40397L8.70078 6.13713L8.42008 6.40397L8.70078 6.6708ZM1.40253 7.47131L1.12183 7.73815L0.841129 7.47131L1.12183 7.20448L1.40253 7.47131ZM2.80604 7.73815L3.08674 7.47131L2.80604 7.20448L2.52534 7.47131L2.80604 7.73815ZM4.77095 7.47131L4.49025 7.73815L4.20955 7.47131L4.49025 7.20448L4.77095 7.47131ZM6.17446 7.73815L6.45516 7.47131L6.17446 7.20448L5.89376 7.47131L6.17446 7.73815ZM8.13937 7.47131L7.85867 7.73815L7.57797 7.47131L7.85867 7.20448L8.13937 7.47131ZM9.54288 7.73815L9.82359 7.47131L9.54288 7.20448L9.26218 7.47131L9.54288 7.73815Z" fill="#EDECE8"/>
  <path d="M21.3324 9.86277V11.0635H-0.000976562V9.86277H21.3324Z" fill="#EDECE8"/>
  <path d="M21.3324 13.5985V12.2643H-0.000976562V13.5985H21.3324Z" fill="#EDECE8"/>
  <path d="M21.3324 14.7992V16H-0.000976562V14.7992H21.3324Z" fill="#EDECE8"/>
</svg>